<?xml version="1.0" standalone="yes"?>

<svg version="1.1" viewBox="0.0 0.0 960.0 540.0" fill="none" stroke="none" stroke-linecap="square" stroke-miterlimit="10" xmlns="http://www.w3.org/2000/svg" xmlns:xlink="http://www.w3.org/1999/xlink"><clipPath id="p.0"><path d="m0 0l960.0 0l0 540.0l-960.0 0l0 -540.0z" clip-rule="nonzero"></path></clipPath><g clip-path="url(#p.0)"><path fill="#ffffff" d="m0 0l960.0 0l0 540.0l-960.0 0z" fill-rule="nonzero"></path><path fill="#f3f152" d="m382.3622 356.53543l-71.81012 0l0 -70.55228l-183.308 0l0 -60.471344l255.11812 0z" fill-rule="nonzero"></path><path stroke="#b1af3b" stroke-width="2.0" stroke-linejoin="round" stroke-linecap="butt" d="m382.3622 356.53543l-71.81012 0l0 -70.55228l-183.308 0l0 -60.471344l255.11812 0z" fill-rule="nonzero"></path><path fill="#f3f152" d="m658.26776 356.53543l-122.203125 0l0 -69.29315l-142.99374 0l0 -61.73047l265.19687 0z" fill-rule="nonzero"></path><path stroke="#b1af3b" stroke-width="2.0" stroke-linejoin="round" stroke-linecap="butt" d="m658.26776 356.53543l-122.203125 0l0 -69.29315l-142.99374 0l0 -61.73047l265.19687 0z" fill-rule="nonzero"></path><path fill="#d07979" d="m127.244095 367.87402l628.66144 0l0 81.25983l-628.66144 0z" fill-rule="nonzero"></path><path stroke="#ad6464" stroke-width="2.0" stroke-linejoin="round" stroke-linecap="butt" d="m127.244095 367.87402l628.66144 0l0 81.25983l-628.66144 0z" fill-rule="nonzero"></path><path fill="#ebba3f" d="m127.244095 296.063l173.85826 0l0 60.472443l-173.85826 0z" fill-rule="nonzero"></path><path stroke="#bc9432" stroke-width="2.0" stroke-linejoin="round" stroke-linecap="butt" d="m127.244095 296.063l173.85826 0l0 60.472443l-173.85826 0z" fill-rule="nonzero"></path><path fill="#ebba3f" d="m392.75592 296.063l133.35431 0l0 60.472443l-133.35431 0z" fill-rule="nonzero"></path><path stroke="#bc9432" stroke-width="2.0" stroke-linejoin="round" stroke-linecap="butt" d="m392.75592 296.063l133.35431 0l0 60.472443l-133.35431 0z" fill-rule="nonzero"></path><path fill="#00d200" d="m755.90546 356.53543l-86.927246 0l0 -144.25398l-142.86804 0l0 -71.17909l229.79529 0z" fill-rule="nonzero"></path><path stroke="#009d00" stroke-width="2.0" stroke-linejoin="round" stroke-linecap="butt" d="m755.90546 356.53543l-86.927246 0l0 -144.25398l-142.86804 0l0 -71.17909l229.79529 0z" fill-rule="nonzero"></path><path fill="#000000" fill-opacity="0.0" d="m190.86613 228.0315l131.02364 0l0 46.614166l-131.02364 0z" fill-rule="nonzero"></path><path fill="#000000" d="m213.00294 246.0015l2.875 0l0 19.0l11.5 0l0 2.375l-14.375 0l0 -21.375zm16.125 14.375q0 -3.25 2.125 -5.375q1.875 -1.875 4.625 -1.875q2.75 0 4.625 1.875q2.125 2.125 2.125 5.375q0 3.25 -2.125 5.375q-1.875 1.875 -4.625 1.875q-2.75 0 -4.625 -1.875q-2.125 -2.125 -2.125 -5.375zm6.75 -5.0q-1.5 0 -2.5 1.0q-1.5 1.5 -1.5 4.0q0 2.5 1.375 3.875q1.125 1.125 2.625 1.125q1.5 0 2.625 -1.125q1.375 -1.375 1.375 -3.875q0 -2.5 -1.5 -4.0q-1.0 -1.0 -2.5 -1.0zm9.875 2.125q0.375 -1.75 1.625 -3.0q1.375 -1.375 4.0 -1.375q3.125 0 4.5 1.375q1.2500153 1.25 1.2500153 2.875l0 7.875q0 1.375 1.0 2.125l-3.0000153 0q-0.5 -0.5 -0.5 -1.625q-1.875 1.875 -4.75 1.875q-2.375 0 -3.625 -1.25q-1.125 -1.125 -1.125 -2.625q0 -1.75 1.125 -2.875q1.25 -1.25 3.5 -1.625q1.5 -0.25 2.625 -0.625q1.625 -0.375 2.25 -0.75q0 -1.0 -0.75 -1.75q-0.75 -0.75 -2.125 -0.75q-1.75 0 -2.5 0.75q-0.5 0.5 -0.75 1.375l-2.75 0zm8.875 2.75q-0.75 0.25 -1.375 0.375q-2.125 0.5 -3.25 0.75q-1.0 0.25 -1.5 0.75q-0.625 0.625 -0.625 1.375q0 0.875 0.625 1.5q0.375 0.375 1.625 0.375q2.125 0 3.5 -1.375q0.875 -0.875 1.0 -1.25l0 -2.5zm16.375015 -14.25l2.5 0l0 21.375l-2.5 0l0 -1.75q-1.375 2.0 -3.75 2.0q-2.625 0 -4.125 -1.5q-2.25 -2.25 -2.25 -5.75q0 -3.75 2.0 -5.75q1.625 -1.625 3.875 -1.625q2.75 0 4.25 2.125l0 -9.125zm-3.875 9.25q-1.25 0 -2.25 1.0q-1.25 1.25 -1.25 4.125q0 2.75 1.375 4.125q0.875 0.875 2.125 0.875q1.5 0 2.5 -1.0q1.375 -1.375 1.375 -4.0q0 -2.625 -1.5 -4.125q-1.0 -1.0 -2.375 -1.0zm9.5 5.125q0 -3.375 2.125 -5.5q1.75 -1.75 4.5 -1.75q2.625 0 4.5 1.875q1.75 1.75 1.75 5.375l-10.125 0q0 2.625 1.25 3.875q1.125 1.125 2.875 1.125q1.75 0 2.5 -0.75q0.875 -0.875 0.875 -2.0l2.75 0q-0.5 2.25 -1.625 3.375q-1.625 1.625 -4.5 1.625q-3.0 0 -4.875 -1.875q-2.0 -2.0 -2.0 -5.375zm6.5 -5.125q-1.5 0 -2.5 1.0q-0.875 0.875 -1.125 2.125l7.125 0q0 -1.25 -1.0 -2.25q-0.875 -0.875 -2.5 -0.875zm13.625 -0.125q2.0 -2.0 5.375 -2.0l0 2.75q-0.5 -0.125 -1.375 -0.125q-1.875 0 -3.5 1.625q-1.375 1.375 -1.875 2.875l0 7.125l-2.5 0l0 -14.0l2.5 0l0 3.5q0.625 -1.0 1.375 -1.75z" fill-rule="nonzero"></path><path fill="#000000" fill-opacity="0.0" d="m149.29134 296.063l131.02364 0l0 46.614166l-131.02364 0z" fill-rule="nonzero"></path><path fill="#000000" d="m195.74065 314.033l14.375 0l0 2.375l-11.5 0l0 7.0l9.0 0l0 2.375l-9.0 0l0 9.625l-2.875 0l0 -21.375zm17.625 0l14.375 0l0 2.375l-11.5 0l0 7.0l9.0 0l0 2.375l-9.0 0l0 9.625l-2.875 0l0 -21.375zm16.25 0l5.625 0l0 2.75l-1.375 0l0 15.875l1.375 0l0 2.75l-5.625 0l0 -2.75l1.375 0l0 -15.875l-1.375 0l0 -2.75z" fill-rule="nonzero"></path><path fill="#000000" fill-opacity="0.0" d="m329.44882 380.7874l224.25198 0l0 46.614166l-224.25198 0z" fill-rule="nonzero"></path><path fill="#000000" d="m389.8873 398.75742l13.75 0l0 2.375l-10.875 0l0 6.625l10.125 0l0 2.375l-10.125 0l0 7.625l11.5 0l0 2.375l-14.375 0l0 -21.375zm18.125 0l2.5 0l0 21.375l-2.5 0l0 -21.375zm6.125 14.375q0 -3.375 2.125 -5.5q1.75 -1.75 4.5 -1.75q2.625 0 4.5 1.875q1.75 1.75 1.75 5.375l-10.125 0q0 2.625 1.25 3.875q1.125 1.125 2.875 1.125q1.75 0 2.5 -0.75q0.875 -0.875 0.875 -2.0l2.75 0q-0.5 2.25 -1.625 3.375q-1.625 1.625 -4.5 1.625q-3.0 0 -4.875 -1.875q-2.0 -2.0 -2.0 -5.375zm6.5 -5.125q-1.5 0 -2.5 1.0q-0.875 0.875 -1.125 2.125l7.125 0q0 -1.25 -1.0 -2.25q-0.875 -0.875 -2.5 -0.875zm12.375 12.125l-2.5 0l0 -14.0l2.5 0l0 2.125q1.625 -2.375 3.75 -2.375q2.375 0 3.625 1.25q0.625 0.625 1.0 1.375q1.625 -2.625 4.5 -2.625q2.0 0 3.125 1.125q1.25 1.25 1.25 2.75l0 10.375l-2.5 0l0 -9.875q0 -0.75 -0.5 -1.25q-0.75 -0.75 -1.75 -0.75q-1.75 0 -2.875 1.125q-1.0 1.0 -1.0 1.875l0 8.875l-2.5 0l0 -9.75q0 -0.75 -0.75 -1.5q-0.625 -0.625 -1.875 -0.625q-1.375 0 -2.375 1.0q-1.125 1.125 -1.125 2.125l0 8.75zm20.625 -7.0q0 -3.375 2.125 -5.5q1.75 -1.75 4.5 -1.75q2.625 0 4.5 1.875q1.75 1.75 1.75 5.375l-10.125 0q0 2.625 1.25 3.875q1.125 1.125 2.875 1.125q1.75 0 2.5 -0.75q0.875 -0.875 0.875 -2.0l2.75 0q-0.5 2.25 -1.625 3.375q-1.625 1.625 -4.5 1.625q-3.0 0 -4.875 -1.875q-2.0 -2.0 -2.0 -5.375zm6.5 -5.125q-1.5 0 -2.5 1.0q-0.875 0.875 -1.125 2.125l7.125 0q0 -1.25 -1.0 -2.25q-0.875 -0.875 -2.5 -0.875zm12.375 12.125l-2.5 0l0 -14.0l2.5 0l0 2.5q2.25 -2.75 4.75 -2.75q2.5 0 4.0 1.5q1.0 1.0 1.0 2.375l0 10.375l-2.5 0l0 -9.625q0 -1.125 -0.75 -1.875q-0.75 -0.75 -2.125 -0.75q-1.25 0 -2.5 1.25q-1.875 1.875 -1.875 4.0l0 7.0zm14.625 -18.875l2.5 0l0 4.875l4.25 0l0 2.0l-4.25 0l0 8.125q0 0.75 0.625 1.375q0.5 0.5 1.625 0.5q1.75 0 3.125 -0.875l0 2.375q-1.375 0.75 -3.0 0.75q-2.5 0 -3.625 -1.125q-1.25 -1.25 -1.25 -2.75l0 -8.375l-3.0 0l0 -2.0l3.0 0l0 -4.875z" fill-rule="nonzero"></path><path fill="#000000" fill-opacity="0.0" d="m560.3779 148.66142l161.25989 0l0 46.614166l-161.25989 0z" fill-rule="nonzero"></path><path fill="#000000" d="m592.6329 166.50642l3.0 0l6.625 17.375l6.625 -17.375l3.0 0l-8.5 21.625l-2.25 0l-8.5 -21.625zm21.25 14.5q0 -3.375 2.125 -5.5q1.75 -1.75 4.5 -1.75q2.625 0 4.5 1.875q1.75 1.75 1.75 5.375l-10.125 0q0 2.625 1.25 3.875q1.125 1.125 2.875 1.125q1.75 0 2.5 -0.75q0.875 -0.875 0.875 -2.0l2.75 0q-0.5 2.25 -1.625 3.375q-1.625 1.625 -4.5 1.625q-3.0 0 -4.875 -1.875q-2.0 -2.0 -2.0 -5.375zm6.5 -5.125q-1.5 0 -2.5 1.0q-0.875 0.875 -1.125 2.125l7.125 0q0 -1.25 -1.0 -2.25q-0.875 -0.875 -2.5 -0.875zm13.625 -0.125q2.0 -2.0 5.375 -2.0l0 2.75q-0.5 -0.125 -1.375 -0.125q-1.875 0 -3.5 1.625q-1.375 1.375 -1.875 2.875l0 7.125l-2.5 0l0 -14.0l2.5 0l0 3.5q0.625 -1.0 1.375 -1.75zm7.625 -9.0l2.5 0l0 3.25l-2.5 0l0 -3.25zm0 7.25l2.5 0l0 14.0l-2.5 0l0 -14.0zm10.125 0l4.25 0l0 2.0l-4.25 0l0 12.0l-2.5 0l0 -12.0l-3.0 0l0 -2.0l3.0 0l0 -3.5q0 -1.75 1.125 -2.875q1.25 -1.25 3.375 -1.25q1.625 0 3.375 0.625l0 2.5q-1.75 -0.875 -2.875 -0.875q-1.375 0 -2.0 0.625q-0.5 0.5 -0.5 1.25l0 3.5zm6.375 -7.25l2.5 0l0 3.25l-2.5 0l0 -3.25zm0 7.25l2.5 0l0 14.0l-2.5 0l0 -14.0zm6.125 7.0q0 -3.375 2.125 -5.5q1.75 -1.75 4.5 -1.75q2.625 0 4.5 1.875q1.75 1.75 1.75 5.375l-10.125 0q0 2.625 1.25 3.875q1.125 1.125 2.875 1.125q1.75 0 2.5 -0.75q0.875 -0.875 0.875 -2.0l2.75 0q-0.5 2.25 -1.625 3.375q-1.625 1.625 -4.5 1.625q-3.0 0 -4.875 -1.875q-2.0 -2.0 -2.0 -5.375zm6.5 -5.125q-1.5 0 -2.5 1.0q-0.875 0.875 -1.125 2.125l7.125 0q0 -1.25 -1.0 -2.25q-0.875 -0.875 -2.5 -0.875zm13.625 -0.125q2.0 -2.0 5.375 -2.0l0 2.75q-0.5 -0.125 -1.375 -0.125q-1.875 0 -3.5 1.625q-1.375 1.375 -1.875 2.875l0 7.125l-2.5 0l0 -14.0l2.5 0l0 3.5q0.625 -1.0 1.375 -1.75z" fill-rule="nonzero"></path><path fill="#000000" fill-opacity="0.0" d="m448.50394 228.0315l161.25986 0l0 46.614166l-161.25986 0z" fill-rule="nonzero"></path><path fill="#000000" d="m507.63385 245.8765l3.0 0l6.625 17.375l6.625 -17.375l3.0 0l-8.5 21.625l-2.25 0l-8.5 -21.625zm22.0 0.125l3.875 0l5.75 16.625l5.75 -16.625l3.875 0l0 21.375l-2.875 0l0 -16.375l-5.75 16.375l-2.0 0l-5.75 -16.375l0 16.375l-2.875 0l0 -21.375z" fill-rule="nonzero"></path><path fill="#000000" fill-opacity="0.0" d="m403.0551 297.95276l112.75592 0l0 46.614166l-112.75592 0z" fill-rule="nonzero"></path><path fill="#000000" d="m439.49557 315.92276l13.75 0l0 2.375l-10.875 0l0 6.625l10.125 0l0 2.375l-10.125 0l0 7.625l11.5 0l0 2.375l-14.375 0l0 -21.375zm17.125 7.375l2.875 0l3.375 5.0l3.375 -5.0l2.875 0l-4.75 6.875l5.125 7.125l-2.875 0l-3.75 -5.25l-3.75 5.25l-2.875 0l5.125 -7.125l-4.75 -6.875zm16.625 -4.875l2.5 0l0 4.875l4.25 0l0 2.0l-4.25 0l0 8.125q0 0.75 0.625 1.375q0.5 0.5 1.625 0.5q1.75 0 3.125 -0.875l0 2.375q-1.375 0.75 -3.0 0.75q-2.5 0 -3.625 -1.125q-1.25 -1.25 -1.25 -2.75l0 -8.375l-3.0 0l0 -2.0l3.0 0l0 -4.875z" fill-rule="nonzero"></path><path fill="#15aeff" d="m755.9055 37.85827l0 94.10981l-239.68634 0l0 80.63034l-388.9751 0l0 -174.74014z" fill-rule="nonzero"></path><path stroke="#0e7cb6" stroke-width="2.0" stroke-linejoin="round" stroke-linecap="butt" d="m755.9055 37.85827l0 94.10981l-239.68634 0l0 80.63034l-388.9751 0l0 -174.74014z" fill-rule="nonzero"></path><path fill="#000000" fill-opacity="0.0" d="m301.32285 41.574802l316.2205 0l0 121.574814l-316.2205 0z" fill-rule="nonzero"></path><path fill="#000000" d="m396.05807 79.76481q0 -4.75 3.5 -8.25q3.5 -3.5 10.75 -3.5q7.75 0 11.75 4.0q3.5 3.5 3.5 8.25l-5.75 0q0 -3.0 -2.0 -5.0q-2.25 -2.25 -7.0 -2.25q-5.25 0 -7.25 2.0q-1.75 1.75 -1.75 4.0q0 2.25 1.0 3.25q1.25 1.25 4.5 2.5q5.75 2.5 13.0 5.75q2.0 0.75 3.75 2.5q2.75 2.75 2.75 6.5q0 5.0 -3.5 8.5q-3.75 3.75 -12.25 3.75q-8.25 0 -12.75 -4.5q-3.25 -3.25 -3.25 -9.5l5.75 0q0 4.5 2.0 6.5q2.75 2.75 8.5 2.75q5.25 0 7.75 -2.5q2.0 -2.0 2.0 -4.0q0 -2.25 -1.5 -3.75q-1.25 -1.25 -4.0 -2.5q-2.5 -1.25 -6.5 -3.0q-4.5 -2.0 -7.25 -3.25q-2.0 -0.75 -3.5 -2.25q-2.25 -2.25 -2.25 -6.0zm38.75 -11.25l5.75 0l0 38.0l23.0 0l0 4.75l-28.75 0l0 -42.75zm31.75 0l11.25 0l0 5.5l-2.75 0l0 31.75l2.75 0l0 5.5l-11.25 0l0 -5.5l2.75 0l0 -31.75l-2.75 0l0 -5.5zm18.0 0l7.75 0l11.5 33.25l11.4999695 -33.25l7.75 0l0 42.75l-5.75 0l0 -32.75l-11.4999695 32.75l-4.0 0l-11.5 -32.75l0 32.75l-5.75 0l0 -42.75z" fill-rule="nonzero"></path><path fill="#000000" fill-opacity="0.0" d="m363.46457 260.7874l56.6929 0" fill-rule="nonzero"></path><path stroke="#595959" stroke-width="1.0" stroke-linejoin="round" stroke-linecap="butt" d="m363.46457 260.7874l50.6929 0" fill-rule="evenodd"></path><path fill="#595959" stroke="#595959" stroke-width="1.0" stroke-linecap="butt" d="m414.15747 262.43915l4.5381165 -1.6517334l-4.5381165 -1.6517334z" fill-rule="evenodd"></path></g></svg>

